<mxfile host="Electron" modified="2024-06-29T06:09:02.205Z" agent="Mozilla/5.0 (Windows NT 10.0; Win64; x64) AppleWebKit/537.36 (KHTML, like Gecko) draw.io/22.1.2 Chrome/114.0.5735.289 Electron/25.9.4 Safari/537.36" etag="-J0jKnMs80oTzw4El_Op" version="22.1.2" type="device">
  <diagram name="Page-1" id="UhHKFU3ax6Pv_h62QpX2">
    <mxGraphModel dx="766" dy="482" grid="1" gridSize="10" guides="1" tooltips="1" connect="1" arrows="1" fold="1" page="1" pageScale="1" pageWidth="1169" pageHeight="827" math="0" shadow="0">
      <root>
        <mxCell id="0" />
        <mxCell id="1" parent="0" />
        <mxCell id="ewVkm4yfp7jfJjwQoRlS-1" value="us-east-1" style="points=[[0,0],[0.25,0],[0.5,0],[0.75,0],[1,0],[1,0.25],[1,0.5],[1,0.75],[1,1],[0.75,1],[0.5,1],[0.25,1],[0,1],[0,0.75],[0,0.5],[0,0.25]];outlineConnect=0;gradientColor=none;html=1;whiteSpace=wrap;fontSize=12;fontStyle=0;container=1;pointerEvents=0;collapsible=0;recursiveResize=0;shape=mxgraph.aws4.group;grIcon=mxgraph.aws4.group_region;strokeColor=#00A4A6;fillColor=none;verticalAlign=top;align=left;spacingLeft=30;fontColor=#147EBA;dashed=1;" vertex="1" parent="1">
          <mxGeometry x="120" y="80" width="600" height="360" as="geometry" />
        </mxCell>
        <mxCell id="ewVkm4yfp7jfJjwQoRlS-3" value="" style="sketch=0;outlineConnect=0;fontColor=#232F3E;gradientColor=none;fillColor=#ED7100;strokeColor=none;dashed=0;verticalLabelPosition=bottom;verticalAlign=top;align=center;html=1;fontSize=12;fontStyle=0;aspect=fixed;pointerEvents=1;shape=mxgraph.aws4.lambda_function;" vertex="1" parent="ewVkm4yfp7jfJjwQoRlS-1">
          <mxGeometry x="79" y="135" width="90" height="90" as="geometry" />
        </mxCell>
        <mxCell id="ewVkm4yfp7jfJjwQoRlS-4" value="" style="sketch=0;outlineConnect=0;fontColor=#232F3E;gradientColor=none;fillColor=#ED7100;strokeColor=none;dashed=0;verticalLabelPosition=bottom;verticalAlign=top;align=center;html=1;fontSize=12;fontStyle=0;aspect=fixed;pointerEvents=1;shape=mxgraph.aws4.lambda_function;" vertex="1" parent="ewVkm4yfp7jfJjwQoRlS-1">
          <mxGeometry x="430" y="135" width="90" height="90" as="geometry" />
        </mxCell>
        <mxCell id="ewVkm4yfp7jfJjwQoRlS-5" value="" style="endArrow=classic;html=1;rounded=0;entryX=-0.067;entryY=0.163;entryDx=0;entryDy=0;entryPerimeter=0;" edge="1" parent="ewVkm4yfp7jfJjwQoRlS-1">
          <mxGeometry width="50" height="50" relative="1" as="geometry">
            <mxPoint x="173" y="156" as="sourcePoint" />
            <mxPoint x="426.9711608016196" y="155.66999999999996" as="targetPoint" />
          </mxGeometry>
        </mxCell>
        <mxCell id="ewVkm4yfp7jfJjwQoRlS-12" value="Invoke + send Event" style="edgeLabel;html=1;align=center;verticalAlign=middle;resizable=0;points=[];" vertex="1" connectable="0" parent="ewVkm4yfp7jfJjwQoRlS-5">
          <mxGeometry x="-0.0261" relative="1" as="geometry">
            <mxPoint as="offset" />
          </mxGeometry>
        </mxCell>
        <mxCell id="ewVkm4yfp7jfJjwQoRlS-8" value="" style="endArrow=classic;html=1;rounded=0;" edge="1" parent="ewVkm4yfp7jfJjwQoRlS-1">
          <mxGeometry width="50" height="50" relative="1" as="geometry">
            <mxPoint x="423" y="205" as="sourcePoint" />
            <mxPoint x="173" y="205" as="targetPoint" />
          </mxGeometry>
        </mxCell>
        <mxCell id="ewVkm4yfp7jfJjwQoRlS-13" value="response" style="edgeLabel;html=1;align=center;verticalAlign=middle;resizable=0;points=[];" vertex="1" connectable="0" parent="ewVkm4yfp7jfJjwQoRlS-8">
          <mxGeometry x="0.0187" y="1" relative="1" as="geometry">
            <mxPoint as="offset" />
          </mxGeometry>
        </mxCell>
        <mxCell id="ewVkm4yfp7jfJjwQoRlS-11" value="&lt;b&gt;Payload&lt;/b&gt;&lt;br&gt;{&#39;CustomerId&#39;: &#39;123&#39;, &#39;Amount&#39;: &#39;50&#39;}" style="rounded=1;whiteSpace=wrap;html=1;strokeWidth=2;fillWeight=4;hachureGap=8;hachureAngle=45;fillColor=#dae8fc;sketch=1;strokeColor=#6c8ebf;" vertex="1" parent="ewVkm4yfp7jfJjwQoRlS-1">
          <mxGeometry x="190" y="94" width="220" height="40" as="geometry" />
        </mxCell>
        <mxCell id="ewVkm4yfp7jfJjwQoRlS-14" value="&lt;b&gt;Response&lt;/b&gt;&lt;br&gt;{&#39;CustomerId&#39;: 123, &#39;Success&#39;: &#39;true&#39;, &#39;TransactionId&#39;: Random transactionId}" style="rounded=1;whiteSpace=wrap;html=1;strokeWidth=2;fillWeight=4;hachureGap=8;hachureAngle=45;fillColor=#dae8fc;sketch=1;strokeColor=#6c8ebf;" vertex="1" parent="ewVkm4yfp7jfJjwQoRlS-1">
          <mxGeometry x="190" y="230" width="220" height="60" as="geometry" />
        </mxCell>
      </root>
    </mxGraphModel>
  </diagram>
</mxfile>
